<?xml version="1.0" standalone="no"?><svg xmlns="http://www.w3.org/2000/svg" viewBox="0 0 1440 320"><path fill="#0099ff" fill-opacity="1" d="M0,64L21.8,74.7C43.6,85,87,107,131,101.3C174.5,96,218,64,262,48C305.5,32,349,32,393,80C436.4,128,480,224,524,261.3C567.3,299,611,277,655,266.7C698.2,256,742,256,785,256C829.1,256,873,256,916,224C960,192,1004,128,1047,101.3C1090.9,75,1135,85,1178,112C1221.8,139,1265,181,1309,202.7C1352.7,224,1396,224,1418,224L1440,224L1440,320L1418.2,320C1396.4,320,1353,320,1309,320C1265.5,320,1222,320,1178,320C1134.5,320,1091,320,1047,320C1003.6,320,960,320,916,320C872.7,320,829,320,785,320C741.8,320,698,320,655,320C610.9,320,567,320,524,320C480,320,436,320,393,320C349.1,320,305,320,262,320C218.2,320,175,320,131,320C87.3,320,44,320,22,320L0,320Z"></path></svg>